<svg xmlns="http://www.w3.org/2000/svg" width="128" height="128" viewBox="0 0 128 128">
  <defs>
    <radialGradient id="bg" cx="50%" cy="35%" r="70%">
      <stop offset="0%" stop-color="#0f172a"></stop>
      <stop offset="70%" stop-color="#0b0e13"></stop>
      <stop offset="100%" stop-color="#070a0f"></stop>
    </radialGradient>
    <linearGradient id="gold" x1="0" y1="0" x2="1" y2="1">
      <stop offset="0%" stop-color="#fde68a"></stop>
      <stop offset="55%" stop-color="#fbbf24"></stop>
      <stop offset="100%" stop-color="#b45309"></stop>
    </linearGradient>
    <linearGradient id="green" x1="0" y1="0" x2="1" y2="1">
      <stop offset="0%" stop-color="#34d399"></stop>
      <stop offset="100%" stop-color="#22c55e"></stop>
    </linearGradient>
  </defs>

  <!-- background -->
  <rect x="6" y="6" width="116" height="116" rx="26" fill="url(#bg)" stroke="#1f2937" stroke-width="2"></rect>

  <!-- radar rings -->
  <circle cx="64" cy="64" r="38" fill="none" stroke="#1f2937" stroke-width="2"></circle>
  <circle cx="64" cy="64" r="26" fill="none" stroke="#1f2937" stroke-width="2" opacity="0.9"></circle>
  <circle cx="64" cy="64" r="14" fill="none" stroke="#1f2937" stroke-width="2" opacity="0.8"></circle>

  <!-- sweep -->
  <path d="M64 64 L102 64 A38 38 0 0 0 76 28 Z" fill="url(#green)" opacity="0.18"></path>

  <!-- banana mark -->
  <path d="M44 79c12 12 32 11 42-3 2-3 2-7-1-9-3-2-7-1-9 2-7 9-20 10-30 1-3-3-7-3-10 0-2 2-2 6 0 9z" fill="url(#gold)"></path>
  <path d="M82 66c1-2 3-3 5-3 2 1 3 3 3 5-1 3-2 5-4 8-1 2-3 3-5 2-2-1-3-3-2-5 1-2 2-4 3-7z" fill="#f59e0b"></path>

  <!-- center blip -->
  <circle cx="64" cy="64" r="3.6" fill="#fbbf24"></circle>
</svg>
