<svg xmlns="http://www.w3.org/2000/svg" width="520" height="120" viewBox="0 0 520 120">
  <defs>
    <linearGradient id="gold" x1="0" y1="0" x2="1" y2="1">
      <stop offset="0%" stop-color="#fde68a"></stop>
      <stop offset="55%" stop-color="#fbbf24"></stop>
      <stop offset="100%" stop-color="#b45309"></stop>
    </linearGradient>
    <linearGradient id="green" x1="0" y1="0" x2="1" y2="1">
      <stop offset="0%" stop-color="#34d399"></stop>
      <stop offset="100%" stop-color="#22c55e"></stop>
    </linearGradient>
  </defs>

  <!-- icon -->
  <g transform="translate(18,14)">
    <rect x="0" y="0" width="92" height="92" rx="22" fill="#0b0e13" stroke="#1f2937" stroke-width="2"></rect>
    <circle cx="46" cy="46" r="30" fill="none" stroke="#1f2937" stroke-width="2"></circle>
    <circle cx="46" cy="46" r="20" fill="none" stroke="#1f2937" stroke-width="2" opacity="0.9"></circle>
    <circle cx="46" cy="46" r="10" fill="none" stroke="#1f2937" stroke-width="2" opacity="0.8"></circle>
    <path d="M46 46 L76 46 A30 30 0 0 0 56 18 Z" fill="url(#green)" opacity="0.18"></path>
    <path d="M30 60c10 10 26 9 34-2 2-3 2-6-1-8-2-2-6-1-8 2-6 7-16 8-24 0-2-2-6-2-8 0-2 2-2 5 0 8z" fill="url(#gold)"></path>
    <circle cx="46" cy="46" r="3.2" fill="#fbbf24"></circle>
  </g>

  <!-- wordmark -->
  <g transform="translate(128,40)">
    <text x="0" y="22" font-size="36" font-family="Space Grotesk, system-ui, -apple-system, Segoe UI" font-weight="900" fill="#e5e7eb">
      Banana <tspan fill="#fbbf24">Radar</tspan>
    </text>
    <text x="0" y="52" font-size="14" font-family="Space Grotesk, system-ui, -apple-system, Segoe UI" font-weight="600" fill="#6b7280">
      Verifiable consensus timelines for new tokens
    </text>
  </g>
</svg>
